<svg width="21" height="16" viewBox="0 0 21 16" fill="none" xmlns="http://www.w3.org/2000/svg">
<path d="M5.3738 3.75021C7.3059 1.85876 10.5168 1.85876 12.4489 3.75021C14.1864 5.45146 14.4435 8.16326 13.0153 10.1197L12.9771 10.1741C12.6192 10.6607 11.9242 10.7764 11.4272 10.4259C10.9268 10.0755 10.8087 9.39497 11.1666 8.90841L11.2048 8.85397C12.0006 7.76177 11.8755 6.26807 10.906 5.31877C9.81485 4.25038 8.03912 4.25038 6.9445 5.31877L3.04555 9.13978C1.95058 10.1809 1.95058 11.9468 3.04555 13.0186C4.0116 13.9679 5.5406 14.0904 6.6526 13.3113L6.7082 13.2432C7.2086 12.9234 7.9036 13.0356 8.25805 13.5256C8.61597 14.0156 8.5013 14.6961 8.0009 15.0465L7.9453 15.084C5.9159 16.4824 3.20888 16.2578 1.47172 14.56C-0.490574 12.6376 -0.490574 9.52086 1.47172 7.60185L5.3738 3.75021ZM15.625 12.219C13.6617 14.1415 10.482 14.1415 8.51867 12.219C6.78117 10.5178 6.5553 7.83662 7.98352 5.88018L8.02175 5.82574C8.3484 5.33918 9.0434 5.2235 9.5716 5.57395C10.072 5.89379 10.1901 6.57429 9.83222 7.09147L9.794 7.14591C8.99822 8.20749 9.12332 9.73182 10.0928 10.6811C11.184 11.7495 12.9597 11.7495 14.0543 10.6811L17.9533 6.8601C19.0479 5.78831 19.0479 4.02241 17.9533 2.98125C16.9872 2.03297 15.4582 1.90912 14.3462 2.68863L14.2906 2.72606C13.7902 3.07652 13.0952 2.93361 12.7408 2.47359C12.3829 1.98431 12.4975 1.30415 12.9979 0.954714L13.0535 0.916606C15.0517 -0.481449 17.79 -0.25964 19.5275 1.44127C21.4908 3.36233 21.4908 6.47902 19.5275 8.39803L15.625 12.219Z" fill="#C4C4C4"/>
</svg>
